<svg version="1" xmlns="http://www.w3.org/2000/svg" width="346.667" height="346.667" viewBox="0 0 260.000000 260.000000"><path d="M110.6 6.6C58.6 14.7 17.7 53.7 6.4 106c-2.5 11.8-2.5 37.2 0 49 14.3 66.2 76 109.4 142.1 99.5 52.7-8 93.8-46.8 105.1-99.5 2.5-11.8 2.5-37.2 0-49-7.6-35.3-28.7-65-59.2-83.3-24.3-14.6-55.3-20.6-83.8-16.1zm58.1 73.9c.6 7.1.8 13.4.4 13.8-.5.5-2.8.7-5.2.5l-4.3-.3-2.4-8.2-2.5-8.2-5.1-.5c-2.8-.4-12.2-.7-20.9-.9l-15.7-.2V125h5.8c3.1 0 9.4-.3 13.9-.6l8.1-.7.7-4.6c1.3-9.3 1.2-9.1 6.6-9.1h4.9v40h-9.9l-1.2-7.5-1.2-7.5H113v50.5l23.2-.8c12.8-.5 23.6-1.1 24-1.5.3-.4 2.5-5.2 4.8-10.7 2.3-5.5 4.3-10.1 4.4-10.2.4-.4 10.6 2.9 10.6 3.4 0 .9-4 24.5-4.5 27l-.5 2.3H79v-4c0-4.4-.1-4.3 9.3-5.5l4.7-.6V78.2l-7-.7-7-.7V67l44.3.2 44.2.3 1.2 13z"/></svg>